<?xml version="1.0" encoding="utf-8"?>
<!-- Generator: Adobe Illustrator 12.0.0, SVG Export Plug-In . SVG Version: 6.00 Build 51448)  -->
<!DOCTYPE svg PUBLIC "-//W3C//DTD SVG 1.1//EN" "http://www.w3.org/Graphics/SVG/1.1/DTD/svg11.dtd" [
	<!ENTITY ns_svg "http://www.w3.org/2000/svg">
	<!ENTITY ns_xlink "http://www.w3.org/1999/xlink">
]>
<svg  version="1.1" id="Layer_1" xmlns="&ns_svg;" xmlns:xlink="&ns_xlink;" width="21" height="21" viewBox="1.208 1.458 21 21"
	 overflow="visible" enable-background="new 1.208 1.458 21 21" xml:space="preserve">
<g>
	<path fill="#FFFFFF" d="M6.348,19.599c2.13,1.658,4.761,2.927,7.526,3.003c0.905-0.376,1.664-0.99,2.11-1.778
		c0.847-0.68,1.39-1.625,1.367-2.781c0.731-4.709,1.249-9.499,0.877-14.264c-0.086,0.04-0.17,0.079-0.256,0.118
		c0.055-0.854-2.222-1.672-3.31-1.944c-1.059-0.281-2.136-0.363-3.208-0.304c-2.051-0.09-4.121,0.367-6.047,1.059
		C5.103,8.347,5.621,14.007,6.348,19.599z M14.509,5.234c0.262-0.12,0.521-0.241,0.781-0.362l0,0
		C15.03,4.993,14.771,5.115,14.509,5.234z"/>
	<path id="path55837_2_" fill="#B6BBC2" d="M8.702,3.233c2.28,0.143,4.69,0.773,6.439,2.307c0.735-0.342,1.473-0.686,2.211-1.029
		c0.088-0.794-1.983-1.56-2.968-1.812C12.06,2.064,9.63,2.521,7.41,3.335C7.836,3.251,8.27,3.225,8.702,3.233z"/>
	
		<linearGradient id="path55844_1_" gradientUnits="userSpaceOnUse" x1="-474.6157" y1="-160.8711" x2="-475.4818" y2="-173.9169" gradientTransform="matrix(0.843 0 0 -0.843 416.6404 -130.2054)">
		<stop  offset="0" style="stop-color:#6B7378"/>
		<stop  offset="0.2381" style="stop-color:#636A6D"/>
		<stop  offset="1" style="stop-color:#495052"/>
	</linearGradient>
	<path id="path55844_2_" fill="url(#path55844_1_)" d="M17.58,4.381c0.334,4.387-0.129,8.796-0.785,13.133
		c0.029,1.53-0.987,2.659-2.352,3.235c0.337-5.063,0.592-10.134,0.698-15.208C15.955,5.154,16.767,4.767,17.58,4.381z"/>
	
		<linearGradient id="path55851_1_" gradientUnits="userSpaceOnUse" x1="-482.0259" y1="-158.2832" x2="-478.0628" y2="-159.7758" gradientTransform="matrix(0.843 0 0 -0.843 416.6404 -130.2054)">
		<stop  offset="0" style="stop-color:#D6D9DE"/>
		<stop  offset="1" style="stop-color:#C0C4C9"/>
	</linearGradient>
	<path id="path55851_2_" fill="url(#path55851_1_)" d="M7.453,3.288c2.405,0.151,4.95,0.814,6.794,2.434
		c0.778-0.371,1.561-0.742,2.34-1.113c0.108-0.724-1.871-1.496-2.776-1.797c-2.55-0.793-5.266-0.322-7.718,0.584
		C6.54,3.306,6.998,3.278,7.453,3.288z"/>
	<path id="path55853_2_" fill="#6F777B" d="M16.819,4.498c0.354,4.694-0.146,9.414-0.864,14.05c0.012,1.467-0.961,2.604-2.276,3.166
		c0.358-5.322,0.475-10.658,0.569-15.992C15.104,5.314,15.962,4.905,16.819,4.498z"/>
	<path id="path55869_2_" fill="#9AA1A8" d="M6.935,18.949c1.908,1.528,4.265,2.694,6.743,2.766
		c0.694-5.295,0.849-10.663,0.569-15.992C12.081,3.809,8.96,2.696,6.093,3.395C5.819,8.587,6.283,13.798,6.935,18.949z"/>
	
		<linearGradient id="polygon55876_1_" gradientUnits="userSpaceOnUse" x1="-488.6509" y1="-161.4312" x2="-481.1712" y2="-166.9083" gradientTransform="matrix(0.843 0 0 -0.843 416.6404 -130.2054)">
		<stop  offset="0" style="stop-color:#505859"/>
		<stop  offset="1" style="stop-color:#000000"/>
	</linearGradient>
	<path id="polygon55876_4_" fill="url(#polygon55876_1_)" d="M13.343,6.279c-0.065,3.187-0.131,6.374-0.196,9.561
		c-1.968-0.725-3.935-1.448-5.901-2.174C7.154,10.593,7.064,7.52,6.974,4.448C9.096,5.059,11.219,5.669,13.343,6.279z"/>
	<path id="polygon55878_2_" fill="#6F777B" d="M7.244,13.667c-0.085-2.881-0.169-5.762-0.255-8.644
		C6.788,4.327,7.247,4.48,7.733,4.665c0.057,2.868,0.114,5.735,0.17,8.602C7.685,13.401,7.465,13.535,7.244,13.667z"/>
	<path id="polygon55880_2_" fill="#E1E3E6" d="M12.606,15.641c0.582,0.399,0.604-0.029,0.563-0.552
		c-1.574-0.545-3.146-1.09-4.721-1.635c-0.441-0.305-0.824-0.065-1.203,0.211C9.032,14.326,10.819,14.983,12.606,15.641z"/>
	<g>
		
			<linearGradient id="polygon55889_1_" gradientUnits="userSpaceOnUse" x1="-482.9272" y1="-167.9824" x2="-473.0005" y2="-174.0409" gradientTransform="matrix(0.8513 -0.0165 -0.0041 -0.8348 418.0059 -132.7276)">
			<stop  offset="0" style="stop-color:#505859"/>
			<stop  offset="1" style="stop-color:#737A7F"/>
		</linearGradient>
		<path id="polygon55889_2_" fill="url(#polygon55889_1_)" d="M11.274,17.167c0.447,0.184,0.896,0.369,1.345,0.554
			c0.426,0.151,0.055,0.81,0.139,1.175c-0.504-0.213-1.01-0.426-1.516-0.641C11.253,17.893,11.265,17.529,11.274,17.167z"/>
		
			<linearGradient id="polygon55896_1_" gradientUnits="userSpaceOnUse" x1="-482.0381" y1="-166.8296" x2="-471.9503" y2="-172.9863" gradientTransform="matrix(0.8513 -0.0165 -0.0041 -0.8348 418.0059 -132.7276)">
			<stop  offset="0" style="stop-color:#505859"/>
			<stop  offset="1" style="stop-color:#737A7F"/>
		</linearGradient>
		<path id="polygon55896_2_" fill="url(#polygon55896_1_)" d="M11.549,16.994c-0.515-0.102-0.146-0.775-0.235-1.15
			c0.459,0.17,0.918,0.341,1.377,0.512c0.434,0.137,0.055,0.803,0.143,1.165C12.404,17.343,11.978,17.167,11.549,16.994z"/>
		
			<linearGradient id="polygon55903_1_" gradientUnits="userSpaceOnUse" x1="-483.8413" y1="-169.0371" x2="-473.9062" y2="-175.1006" gradientTransform="matrix(0.8513 -0.0165 -0.0041 -0.8348 418.0059 -132.7276)">
			<stop  offset="0" style="stop-color:#505859"/>
			<stop  offset="1" style="stop-color:#737A7F"/>
		</linearGradient>
		<path id="polygon55903_2_" fill="url(#polygon55903_1_)" d="M12.412,19.041c0.577,0.057,0.221,0.694,0.281,1.074
			c-0.261,0.061-0.796-0.33-1.16-0.441c-0.567-0.084-0.23-0.737-0.3-1.135C11.626,18.707,12.02,18.873,12.412,19.041z"/>
		
			<linearGradient id="polygon55910_1_" gradientUnits="userSpaceOnUse" x1="-483.7329" y1="-168.1699" x2="-473.3881" y2="-174.4834" gradientTransform="matrix(0.8513 -0.0165 -0.0041 -0.8348 418.0059 -132.7276)">
			<stop  offset="0" style="stop-color:#505859"/>
			<stop  offset="1" style="stop-color:#737A7F"/>
		</linearGradient>
		<path id="polygon55910_2_" fill="url(#polygon55910_1_)" d="M9.184,17.263c-0.099,0.281-0.772-0.26-1.099-0.303
			c-0.424-0.153-0.146-0.813-0.27-1.184c0.443,0.176,0.887,0.354,1.331,0.529C9.159,16.625,9.171,16.944,9.184,17.263z"/>
		
			<linearGradient id="polygon55917_1_" gradientUnits="userSpaceOnUse" x1="-482.521" y1="-166.9771" x2="-472.1801" y2="-173.2883" gradientTransform="matrix(0.8513 -0.0165 -0.0041 -0.8348 418.0059 -132.7276)">
			<stop  offset="0" style="stop-color:#505859"/>
			<stop  offset="1" style="stop-color:#737A7F"/>
		</linearGradient>
		<path id="polygon55917_2_" fill="url(#polygon55917_1_)" d="M9.819,16.313c-0.57-0.063-0.264-0.731-0.353-1.129
			c0.421,0.153,0.841,0.308,1.261,0.461c0.52,0.078,0.161,0.767,0.26,1.138C10.598,16.625,10.208,16.468,9.819,16.313z"/>
		
			<linearGradient id="polygon55924_1_" gradientUnits="userSpaceOnUse" x1="-482.9043" y1="-167.1387" x2="-472.3485" y2="-173.5811" gradientTransform="matrix(0.8513 -0.0165 -0.0041 -0.8348 418.0059 -132.7276)">
			<stop  offset="0" style="stop-color:#505859"/>
			<stop  offset="1" style="stop-color:#737A7F"/>
		</linearGradient>
		<path id="polygon55924_2_" fill="url(#polygon55924_1_)" d="M9.128,15.807c0.046,0.474-0.705-0.179-0.998-0.181
			c-0.561-0.049-0.292-0.703-0.396-1.086c0.455,0.162,0.91,0.326,1.365,0.49C9.108,15.291,9.118,15.546,9.128,15.807z"/>
		
			<linearGradient id="polygon55931_1_" gradientUnits="userSpaceOnUse" x1="-484.2764" y1="-169.1006" x2="-474.1112" y2="-175.3047" gradientTransform="matrix(0.8513 -0.0165 -0.0041 -0.8348 418.0059 -132.7276)">
			<stop  offset="0" style="stop-color:#505859"/>
			<stop  offset="1" style="stop-color:#737A7F"/>
		</linearGradient>
		<path id="polygon55931_2_" fill="url(#polygon55931_1_)" d="M9.52,17.985c0.114-0.271,0.779,0.269,1.116,0.322
			c0.571,0.069,0.244,0.731,0.322,1.127c-0.475-0.206-0.948-0.412-1.422-0.619C9.53,18.539,9.525,18.262,9.52,17.985z"/>
		
			<linearGradient id="polygon55938_1_" gradientUnits="userSpaceOnUse" x1="-484.5806" y1="-169.2026" x2="-474.287" y2="-175.485" gradientTransform="matrix(0.8513 -0.0165 -0.0041 -0.8348 418.0059 -132.7276)">
			<stop  offset="0" style="stop-color:#505859"/>
			<stop  offset="1" style="stop-color:#737A7F"/>
		</linearGradient>
		<path id="polygon55938_2_" fill="url(#polygon55938_1_)" d="M9.222,18.378c0.13,0.603-0.631-0.094-0.928-0.112
			c-0.556-0.067-0.289-0.716-0.392-1.103c0.433,0.176,0.864,0.354,1.296,0.528C9.206,17.921,9.215,18.151,9.222,18.378z"/>
		
			<linearGradient id="polygon55945_1_" gradientUnits="userSpaceOnUse" x1="-483.375" y1="-168.0693" x2="-473.224" y2="-174.2647" gradientTransform="matrix(0.8513 -0.0165 -0.0041 -0.8348 418.0059 -132.7276)">
			<stop  offset="0" style="stop-color:#505859"/>
			<stop  offset="1" style="stop-color:#737A7F"/>
		</linearGradient>
		<path id="polygon55945_2_" fill="url(#polygon55945_1_)" d="M10.782,16.985c0.428,0.149,0.09,0.81,0.189,1.177
			c-0.42-0.174-0.84-0.347-1.26-0.521C9.286,17.487,9.6,16.83,9.49,16.46C9.922,16.636,10.353,16.811,10.782,16.985z"/>
		
			<linearGradient id="polygon55952_1_" gradientUnits="userSpaceOnUse" x1="-485.0439" y1="-170.1592" x2="-475.034" y2="-176.2684" gradientTransform="matrix(0.8513 -0.0165 -0.0041 -0.8348 418.0059 -132.7276)">
			<stop  offset="0" style="stop-color:#505859"/>
			<stop  offset="1" style="stop-color:#737A7F"/>
		</linearGradient>
		<path id="polygon55952_2_" fill="url(#polygon55952_1_)" d="M10.56,19.548c0.594,0.051,0.346,0.646,0.385,1.056
			c-0.099,0.287-0.746-0.297-1.059-0.351c-0.557-0.096-0.258-0.748-0.346-1.15C9.88,19.251,10.22,19.401,10.56,19.548z"/>
	</g>
	
		<linearGradient id="polygon55876_3_" gradientUnits="userSpaceOnUse" x1="-481.8428" y1="-159.8428" x2="-481.8428" y2="-166.4089" gradientTransform="matrix(0.843 0 0 -0.843 416.6404 -130.2054)">
		<stop  offset="0" style="stop-color:#FFFFFF"/>
		<stop  offset="0.9944" style="stop-color:#000000"/>
	</linearGradient>
	<path id="polygon55876_2_" fill="url(#polygon55876_3_)" d="M12.767,6.569c-0.049,2.32-0.098,4.641-0.145,6.962
		c-1.434-0.527-2.865-1.056-4.297-1.583C8.259,9.71,8.192,7.474,8.127,5.236C9.673,5.68,11.219,6.125,12.767,6.569z"/>
</g>
</svg>
